<mxfile host="Electron" agent="Mozilla/5.0 (Windows NT 10.0; Win64; x64) AppleWebKit/537.36 (KHTML, like Gecko) draw.io/26.2.2 Chrome/134.0.6998.178 Electron/35.1.2 Safari/537.36" version="26.2.2">
  <diagram name="Page-1" id="Ry5E4VyP3oIoueq6zQVK">
    <mxGraphModel dx="910" dy="704" grid="1" gridSize="10" guides="1" tooltips="1" connect="1" arrows="1" fold="1" page="1" pageScale="1" pageWidth="827" pageHeight="1169" math="0" shadow="0">
      <root>
        <mxCell id="0" />
        <mxCell id="1" parent="0" />
        <mxCell id="hg9_Pr8IPu3EkkVxl7I2-6" value="" style="rounded=0;whiteSpace=wrap;html=1;align=center;fontColor=#000000;" parent="1" vertex="1">
          <mxGeometry x="620" y="490" width="100" height="140" as="geometry" />
        </mxCell>
        <mxCell id="FKnu9fOOEgawx1uUUJKB-68" value="&lt;h1&gt;Concatenation Only&lt;/h1&gt;" style="text;html=1;align=center;verticalAlign=middle;whiteSpace=wrap;rounded=0;fontStyle=1;fontColor=#000000;" parent="1" vertex="1">
          <mxGeometry x="590" y="150" width="305" height="40" as="geometry" />
        </mxCell>
        <mxCell id="FKnu9fOOEgawx1uUUJKB-69" value="" style="rounded=0;whiteSpace=wrap;html=1;align=center;fontColor=#000000;" parent="1" vertex="1">
          <mxGeometry x="780" y="310" width="100" height="140" as="geometry" />
        </mxCell>
        <mxCell id="hg9_Pr8IPu3EkkVxl7I2-3" style="edgeStyle=orthogonalEdgeStyle;rounded=0;orthogonalLoop=1;jettySize=auto;html=1;entryX=0.5;entryY=0;entryDx=0;entryDy=0;" parent="1" source="FKnu9fOOEgawx1uUUJKB-71" target="xEXkKyEz45HYC3gErNy9-41" edge="1">
          <mxGeometry relative="1" as="geometry">
            <mxPoint x="830" y="380" as="targetPoint" />
          </mxGeometry>
        </mxCell>
        <mxCell id="FKnu9fOOEgawx1uUUJKB-71" value="ConvStack" style="rounded=0;whiteSpace=wrap;html=1;fillColor=#FFE599;fontColor=#000000;" parent="1" vertex="1">
          <mxGeometry x="790" y="320" width="80" height="40" as="geometry" />
        </mxCell>
        <mxCell id="FKnu9fOOEgawx1uUUJKB-74" style="edgeStyle=orthogonalEdgeStyle;rounded=0;orthogonalLoop=1;jettySize=auto;html=1;fontColor=#000000;" parent="1" target="FKnu9fOOEgawx1uUUJKB-85" edge="1">
          <mxGeometry relative="1" as="geometry">
            <mxPoint x="830" y="470" as="sourcePoint" />
          </mxGeometry>
        </mxCell>
        <mxCell id="hg9_Pr8IPu3EkkVxl7I2-19" style="edgeStyle=orthogonalEdgeStyle;rounded=0;orthogonalLoop=1;jettySize=auto;html=1;entryX=1;entryY=0.5;entryDx=0;entryDy=0;exitX=0.5;exitY=1;exitDx=0;exitDy=0;" parent="1" source="xEXkKyEz45HYC3gErNy9-42" target="hg9_Pr8IPu3EkkVxl7I2-20" edge="1">
          <mxGeometry relative="1" as="geometry">
            <mxPoint x="830" y="500" as="sourcePoint" />
          </mxGeometry>
        </mxCell>
        <mxCell id="FKnu9fOOEgawx1uUUJKB-76" style="edgeStyle=orthogonalEdgeStyle;rounded=0;orthogonalLoop=1;jettySize=auto;html=1;fontColor=#000000;" parent="1" source="FKnu9fOOEgawx1uUUJKB-77" target="FKnu9fOOEgawx1uUUJKB-81" edge="1">
          <mxGeometry relative="1" as="geometry" />
        </mxCell>
        <mxCell id="FKnu9fOOEgawx1uUUJKB-77" value="Input&lt;div&gt;&lt;font style=&quot;font-size: 9px;&quot;&gt;(Audio)&lt;/font&gt;&lt;/div&gt;" style="rounded=0;whiteSpace=wrap;html=1;fontStyle=0;fillColor=#E6E6E6;fontColor=#000000;" parent="1" vertex="1">
          <mxGeometry x="630" y="200" width="80" height="30" as="geometry" />
        </mxCell>
        <mxCell id="FKnu9fOOEgawx1uUUJKB-78" value="&lt;p&gt;&lt;font&gt;B×&lt;span style=&quot;background-color: transparent;&quot;&gt;T&lt;/span&gt;&lt;span style=&quot;background-color: transparent;&quot;&gt;×C&#39;&lt;/span&gt;&lt;/font&gt;&lt;/p&gt;" style="text;html=1;align=center;verticalAlign=middle;whiteSpace=wrap;rounded=0;fontColor=#000000;fontSize=9;" parent="1" vertex="1">
          <mxGeometry x="830" y="360" width="50" height="20" as="geometry" />
        </mxCell>
        <mxCell id="FKnu9fOOEgawx1uUUJKB-80" style="edgeStyle=orthogonalEdgeStyle;rounded=0;orthogonalLoop=1;jettySize=auto;html=1;exitX=0.5;exitY=1;exitDx=0;exitDy=0;entryX=0.5;entryY=0;entryDx=0;entryDy=0;fontColor=#000000;" parent="1" source="FKnu9fOOEgawx1uUUJKB-81" target="FKnu9fOOEgawx1uUUJKB-71" edge="1">
          <mxGeometry relative="1" as="geometry" />
        </mxCell>
        <mxCell id="FKnu9fOOEgawx1uUUJKB-81" value="LogMel&lt;div&gt;Spectrogram&lt;/div&gt;" style="rounded=0;whiteSpace=wrap;html=1;fontColor=#000000;" parent="1" vertex="1">
          <mxGeometry x="630" y="250" width="80" height="30" as="geometry" />
        </mxCell>
        <mxCell id="FKnu9fOOEgawx1uUUJKB-82" value="&lt;p&gt;&lt;font&gt;B&lt;span style=&quot;background-color: transparent;&quot;&gt;×&lt;/span&gt;&lt;span style=&quot;background-color: transparent;&quot;&gt;T&lt;/span&gt;&lt;span style=&quot;background-color: transparent;&quot;&gt;×&lt;/span&gt;&lt;span style=&quot;background-color: transparent;&quot;&gt;F&lt;/span&gt;&lt;/font&gt;&lt;/p&gt;" style="text;html=1;align=center;verticalAlign=middle;whiteSpace=wrap;rounded=0;fontColor=#000000;fontSize=9;" parent="1" vertex="1">
          <mxGeometry x="670" y="280" width="50" height="20" as="geometry" />
        </mxCell>
        <mxCell id="FKnu9fOOEgawx1uUUJKB-83" value="&lt;h3&gt;Onset Stack&lt;/h3&gt;" style="text;html=1;align=center;verticalAlign=middle;whiteSpace=wrap;rounded=0;fontStyle=1;fontColor=#000000;" parent="1" vertex="1">
          <mxGeometry x="730" y="350" width="50" height="40" as="geometry" />
        </mxCell>
        <mxCell id="FKnu9fOOEgawx1uUUJKB-84" value="&lt;p&gt;&lt;font&gt;B×L&lt;/font&gt;&lt;/p&gt;" style="text;html=1;align=center;verticalAlign=middle;whiteSpace=wrap;rounded=0;fontColor=#000000;fontSize=9;" parent="1" vertex="1">
          <mxGeometry x="670" y="230" width="50" height="20" as="geometry" />
        </mxCell>
        <mxCell id="FKnu9fOOEgawx1uUUJKB-85" value="onset_pred" style="rounded=0;whiteSpace=wrap;html=1;fillColor=#E6E6E6;fontColor=#000000;" parent="1" vertex="1">
          <mxGeometry x="790" y="650" width="80" height="20" as="geometry" />
        </mxCell>
        <mxCell id="FKnu9fOOEgawx1uUUJKB-86" value="&lt;h3&gt;Pre Frame Stack&lt;/h3&gt;" style="text;html=1;align=center;verticalAlign=middle;whiteSpace=wrap;rounded=0;fontStyle=1;fontColor=#000000;" parent="1" vertex="1">
          <mxGeometry x="570" y="360" width="50" height="40" as="geometry" />
        </mxCell>
        <mxCell id="FKnu9fOOEgawx1uUUJKB-87" value="" style="rounded=0;whiteSpace=wrap;html=1;align=center;fontColor=#000000;" parent="1" vertex="1">
          <mxGeometry x="620" y="310" width="100" height="140" as="geometry" />
        </mxCell>
        <mxCell id="FKnu9fOOEgawx1uUUJKB-88" value="" style="edgeStyle=orthogonalEdgeStyle;rounded=0;orthogonalLoop=1;jettySize=auto;html=1;entryX=0.5;entryY=0;entryDx=0;entryDy=0;fontColor=#000000;" parent="1" source="FKnu9fOOEgawx1uUUJKB-89" target="FKnu9fOOEgawx1uUUJKB-91" edge="1">
          <mxGeometry relative="1" as="geometry" />
        </mxCell>
        <mxCell id="FKnu9fOOEgawx1uUUJKB-89" value="ConvStack" style="rounded=0;whiteSpace=wrap;html=1;fillColor=#FFE599;fontColor=#000000;" parent="1" vertex="1">
          <mxGeometry x="630" y="320" width="80" height="40" as="geometry" />
        </mxCell>
        <mxCell id="FKnu9fOOEgawx1uUUJKB-90" style="edgeStyle=orthogonalEdgeStyle;rounded=0;orthogonalLoop=1;jettySize=auto;html=1;entryX=0.5;entryY=0;entryDx=0;entryDy=0;fontColor=#000000;" parent="1" source="FKnu9fOOEgawx1uUUJKB-91" target="FKnu9fOOEgawx1uUUJKB-93" edge="1">
          <mxGeometry relative="1" as="geometry" />
        </mxCell>
        <mxCell id="FKnu9fOOEgawx1uUUJKB-91" value="Linear" style="rounded=0;whiteSpace=wrap;html=1;fontColor=#000000;" parent="1" vertex="1">
          <mxGeometry x="630" y="380" width="80" height="20" as="geometry" />
        </mxCell>
        <mxCell id="hg9_Pr8IPu3EkkVxl7I2-13" style="edgeStyle=orthogonalEdgeStyle;rounded=0;orthogonalLoop=1;jettySize=auto;html=1;entryX=0.5;entryY=0;entryDx=0;entryDy=0;" parent="1" source="FKnu9fOOEgawx1uUUJKB-93" target="hg9_Pr8IPu3EkkVxl7I2-20" edge="1">
          <mxGeometry relative="1" as="geometry" />
        </mxCell>
        <mxCell id="FKnu9fOOEgawx1uUUJKB-93" value="Sigmoid" style="rounded=0;whiteSpace=wrap;html=1;fontColor=#000000;" parent="1" vertex="1">
          <mxGeometry x="630" y="420" width="80" height="20" as="geometry" />
        </mxCell>
        <mxCell id="FKnu9fOOEgawx1uUUJKB-94" value="&lt;p&gt;&lt;font&gt;B×&lt;span style=&quot;background-color: transparent;&quot;&gt;T&lt;/span&gt;&lt;span style=&quot;background-color: transparent;&quot;&gt;×C&#39;&lt;/span&gt;&lt;/font&gt;&lt;/p&gt;" style="text;html=1;align=center;verticalAlign=middle;whiteSpace=wrap;rounded=0;fontColor=#000000;fontSize=9;" parent="1" vertex="1">
          <mxGeometry x="670" y="360" width="50" height="20" as="geometry" />
        </mxCell>
        <mxCell id="FKnu9fOOEgawx1uUUJKB-95" value="&lt;p&gt;&lt;font&gt;B×&lt;span style=&quot;background-color: transparent;&quot;&gt;T&lt;/span&gt;&lt;span style=&quot;background-color: transparent;&quot;&gt;×C&quot;&lt;/span&gt;&lt;/font&gt;&lt;/p&gt;" style="text;html=1;align=center;verticalAlign=middle;whiteSpace=wrap;rounded=0;fontColor=#000000;fontSize=9;" parent="1" vertex="1">
          <mxGeometry x="670" y="400" width="50" height="20" as="geometry" />
        </mxCell>
        <mxCell id="FKnu9fOOEgawx1uUUJKB-96" value="frame_pred" style="rounded=0;whiteSpace=wrap;html=1;fillColor=#E6E6E6;fontColor=#000000;" parent="1" vertex="1">
          <mxGeometry x="630" y="650" width="80" height="20" as="geometry" />
        </mxCell>
        <mxCell id="FKnu9fOOEgawx1uUUJKB-97" style="edgeStyle=orthogonalEdgeStyle;rounded=0;orthogonalLoop=1;jettySize=auto;html=1;fontColor=#000000;" parent="1" source="FKnu9fOOEgawx1uUUJKB-81" target="FKnu9fOOEgawx1uUUJKB-89" edge="1">
          <mxGeometry relative="1" as="geometry">
            <Array as="points">
              <mxPoint x="670" y="310" />
              <mxPoint x="670" y="310" />
            </Array>
          </mxGeometry>
        </mxCell>
        <mxCell id="FKnu9fOOEgawx1uUUJKB-100" value="&lt;p&gt;&lt;font&gt;B×&lt;span style=&quot;background-color: transparent;&quot;&gt;T&lt;/span&gt;&lt;span style=&quot;background-color: transparent;&quot;&gt;×C&quot;&lt;/span&gt;&lt;/font&gt;&lt;/p&gt;" style="text;html=1;align=center;verticalAlign=middle;whiteSpace=wrap;rounded=0;fontColor=#000000;fontSize=9;" parent="1" vertex="1">
          <mxGeometry x="670" y="670" width="50" height="20" as="geometry" />
        </mxCell>
        <mxCell id="FKnu9fOOEgawx1uUUJKB-101" value="&lt;p&gt;&lt;font&gt;B×&lt;span style=&quot;background-color: transparent;&quot;&gt;T&lt;/span&gt;&lt;span style=&quot;background-color: transparent;&quot;&gt;×C&quot;&lt;/span&gt;&lt;/font&gt;&lt;/p&gt;" style="text;html=1;align=center;verticalAlign=middle;whiteSpace=wrap;rounded=0;fontColor=#000000;fontSize=9;" parent="1" vertex="1">
          <mxGeometry x="830" y="670" width="50" height="20" as="geometry" />
        </mxCell>
        <mxCell id="hg9_Pr8IPu3EkkVxl7I2-1" value="&lt;h3&gt;Post Frame Stack&lt;/h3&gt;" style="text;html=1;align=center;verticalAlign=middle;whiteSpace=wrap;rounded=0;fontStyle=1;fontColor=#000000;" parent="1" vertex="1">
          <mxGeometry x="570" y="540" width="50" height="40" as="geometry" />
        </mxCell>
        <mxCell id="hg9_Pr8IPu3EkkVxl7I2-17" style="edgeStyle=orthogonalEdgeStyle;rounded=0;orthogonalLoop=1;jettySize=auto;html=1;entryX=0.5;entryY=0;entryDx=0;entryDy=0;" parent="1" source="hg9_Pr8IPu3EkkVxl7I2-8" target="FKnu9fOOEgawx1uUUJKB-96" edge="1">
          <mxGeometry relative="1" as="geometry" />
        </mxCell>
        <mxCell id="hg9_Pr8IPu3EkkVxl7I2-8" value="Sigmoid" style="rounded=0;whiteSpace=wrap;html=1;fontColor=#000000;" parent="1" vertex="1">
          <mxGeometry x="630" y="600" width="80" height="20" as="geometry" />
        </mxCell>
        <mxCell id="hg9_Pr8IPu3EkkVxl7I2-15" style="edgeStyle=orthogonalEdgeStyle;rounded=0;orthogonalLoop=1;jettySize=auto;html=1;entryX=0.5;entryY=0;entryDx=0;entryDy=0;" parent="1" source="hg9_Pr8IPu3EkkVxl7I2-10" target="hg9_Pr8IPu3EkkVxl7I2-8" edge="1">
          <mxGeometry relative="1" as="geometry" />
        </mxCell>
        <mxCell id="hg9_Pr8IPu3EkkVxl7I2-10" value="Linear" style="rounded=0;whiteSpace=wrap;html=1;fontColor=#000000;" parent="1" vertex="1">
          <mxGeometry x="630" y="560" width="80" height="20" as="geometry" />
        </mxCell>
        <mxCell id="hg9_Pr8IPu3EkkVxl7I2-14" style="edgeStyle=orthogonalEdgeStyle;rounded=0;orthogonalLoop=1;jettySize=auto;html=1;entryX=0.5;entryY=0;entryDx=0;entryDy=0;" parent="1" target="hg9_Pr8IPu3EkkVxl7I2-10" edge="1">
          <mxGeometry relative="1" as="geometry">
            <mxPoint x="670" y="540" as="sourcePoint" />
          </mxGeometry>
        </mxCell>
        <mxCell id="hg9_Pr8IPu3EkkVxl7I2-21" style="edgeStyle=orthogonalEdgeStyle;rounded=0;orthogonalLoop=1;jettySize=auto;html=1;entryX=0.5;entryY=0;entryDx=0;entryDy=0;" parent="1" source="hg9_Pr8IPu3EkkVxl7I2-20" edge="1">
          <mxGeometry relative="1" as="geometry">
            <mxPoint x="670" y="500" as="targetPoint" />
          </mxGeometry>
        </mxCell>
        <mxCell id="hg9_Pr8IPu3EkkVxl7I2-20" value="Concat" style="rounded=0;whiteSpace=wrap;html=1;fontColor=#000000;" parent="1" vertex="1">
          <mxGeometry x="630" y="460" width="80" height="20" as="geometry" />
        </mxCell>
        <mxCell id="hg9_Pr8IPu3EkkVxl7I2-22" value="&lt;p&gt;&lt;font&gt;B×&lt;span style=&quot;background-color: transparent;&quot;&gt;T&lt;/span&gt;&lt;span style=&quot;background-color: transparent;&quot;&gt;×2C&quot;&lt;/span&gt;&lt;/font&gt;&lt;/p&gt;" style="text;html=1;align=center;verticalAlign=middle;whiteSpace=wrap;rounded=0;fontColor=#000000;fontSize=9;" parent="1" vertex="1">
          <mxGeometry x="670" y="480" width="50" height="20" as="geometry" />
        </mxCell>
        <mxCell id="hg9_Pr8IPu3EkkVxl7I2-23" value="&lt;p&gt;&lt;font&gt;B×&lt;span style=&quot;background-color: transparent;&quot;&gt;T&lt;/span&gt;&lt;span style=&quot;background-color: transparent;&quot;&gt;×C&#39;&lt;/span&gt;&lt;/font&gt;&lt;/p&gt;" style="text;html=1;align=center;verticalAlign=middle;whiteSpace=wrap;rounded=0;fontColor=#000000;fontSize=9;" parent="1" vertex="1">
          <mxGeometry x="670" y="540" width="50" height="20" as="geometry" />
        </mxCell>
        <mxCell id="hg9_Pr8IPu3EkkVxl7I2-24" value="&lt;p&gt;&lt;font&gt;B×&lt;span style=&quot;background-color: transparent;&quot;&gt;T&lt;/span&gt;&lt;span style=&quot;background-color: transparent;&quot;&gt;×C&quot;&lt;/span&gt;&lt;/font&gt;&lt;/p&gt;" style="text;html=1;align=center;verticalAlign=middle;whiteSpace=wrap;rounded=0;fontColor=#000000;fontSize=9;" parent="1" vertex="1">
          <mxGeometry x="670" y="580" width="50" height="20" as="geometry" />
        </mxCell>
        <mxCell id="hg9_Pr8IPu3EkkVxl7I2-25" value="&lt;h1&gt;BiLSTM Only&lt;/h1&gt;" style="text;html=1;align=center;verticalAlign=middle;whiteSpace=wrap;rounded=0;fontStyle=1;fontColor=#000000;" parent="1" vertex="1">
          <mxGeometry x="140" y="150" width="305" height="40" as="geometry" />
        </mxCell>
        <mxCell id="hg9_Pr8IPu3EkkVxl7I2-33" style="edgeStyle=orthogonalEdgeStyle;rounded=0;orthogonalLoop=1;jettySize=auto;html=1;fontColor=#000000;" parent="1" source="hg9_Pr8IPu3EkkVxl7I2-34" target="hg9_Pr8IPu3EkkVxl7I2-38" edge="1">
          <mxGeometry relative="1" as="geometry" />
        </mxCell>
        <mxCell id="hg9_Pr8IPu3EkkVxl7I2-34" value="Input&lt;div&gt;&lt;font style=&quot;font-size: 9px;&quot;&gt;(Audio)&lt;/font&gt;&lt;/div&gt;" style="rounded=0;whiteSpace=wrap;html=1;fontStyle=0;fillColor=#E6E6E6;fontColor=#000000;" parent="1" vertex="1">
          <mxGeometry x="180" y="200" width="80" height="30" as="geometry" />
        </mxCell>
        <mxCell id="hg9_Pr8IPu3EkkVxl7I2-38" value="LogMel&lt;div&gt;Spectrogram&lt;/div&gt;" style="rounded=0;whiteSpace=wrap;html=1;fontColor=#000000;" parent="1" vertex="1">
          <mxGeometry x="180" y="250" width="80" height="30" as="geometry" />
        </mxCell>
        <mxCell id="hg9_Pr8IPu3EkkVxl7I2-39" value="&lt;p&gt;&lt;font&gt;B&lt;span style=&quot;background-color: transparent;&quot;&gt;×&lt;/span&gt;&lt;span style=&quot;background-color: transparent;&quot;&gt;T&lt;/span&gt;&lt;span style=&quot;background-color: transparent;&quot;&gt;×&lt;/span&gt;&lt;span style=&quot;background-color: transparent;&quot;&gt;F&lt;/span&gt;&lt;/font&gt;&lt;/p&gt;" style="text;html=1;align=center;verticalAlign=middle;whiteSpace=wrap;rounded=0;fontColor=#000000;fontSize=9;" parent="1" vertex="1">
          <mxGeometry x="220" y="280" width="50" height="20" as="geometry" />
        </mxCell>
        <mxCell id="hg9_Pr8IPu3EkkVxl7I2-40" value="&lt;h3&gt;Onset Stack&lt;/h3&gt;" style="text;html=1;align=center;verticalAlign=middle;whiteSpace=wrap;rounded=0;fontStyle=1;fontColor=#000000;" parent="1" vertex="1">
          <mxGeometry x="280" y="380" width="50" height="40" as="geometry" />
        </mxCell>
        <mxCell id="hg9_Pr8IPu3EkkVxl7I2-41" value="&lt;p&gt;&lt;font&gt;B×L&lt;/font&gt;&lt;/p&gt;" style="text;html=1;align=center;verticalAlign=middle;whiteSpace=wrap;rounded=0;fontColor=#000000;fontSize=9;" parent="1" vertex="1">
          <mxGeometry x="220" y="230" width="50" height="20" as="geometry" />
        </mxCell>
        <mxCell id="hg9_Pr8IPu3EkkVxl7I2-43" value="&lt;h3&gt;Frame Stack&lt;/h3&gt;" style="text;html=1;align=center;verticalAlign=middle;whiteSpace=wrap;rounded=0;fontStyle=1;fontColor=#000000;" parent="1" vertex="1">
          <mxGeometry x="120" y="380" width="50" height="40" as="geometry" />
        </mxCell>
        <mxCell id="xEXkKyEz45HYC3gErNy9-12" value="" style="rounded=0;whiteSpace=wrap;html=1;align=center;fontColor=#000000;" parent="1" vertex="1">
          <mxGeometry x="330" y="310" width="100" height="200" as="geometry" />
        </mxCell>
        <mxCell id="xEXkKyEz45HYC3gErNy9-13" style="edgeStyle=orthogonalEdgeStyle;rounded=0;orthogonalLoop=1;jettySize=auto;html=1;entryX=0.5;entryY=0;entryDx=0;entryDy=0;" parent="1" source="xEXkKyEz45HYC3gErNy9-14" target="xEXkKyEz45HYC3gErNy9-24" edge="1">
          <mxGeometry relative="1" as="geometry" />
        </mxCell>
        <mxCell id="xEXkKyEz45HYC3gErNy9-14" value="ConvStack" style="rounded=0;whiteSpace=wrap;html=1;fillColor=#FFE599;fontColor=#000000;" parent="1" vertex="1">
          <mxGeometry x="340" y="320" width="80" height="40" as="geometry" />
        </mxCell>
        <mxCell id="xEXkKyEz45HYC3gErNy9-15" style="edgeStyle=orthogonalEdgeStyle;rounded=0;orthogonalLoop=1;jettySize=auto;html=1;entryX=0.5;entryY=0;entryDx=0;entryDy=0;fontColor=#000000;" parent="1" source="xEXkKyEz45HYC3gErNy9-16" target="xEXkKyEz45HYC3gErNy9-18" edge="1">
          <mxGeometry relative="1" as="geometry" />
        </mxCell>
        <mxCell id="xEXkKyEz45HYC3gErNy9-16" value="Linear" style="rounded=0;whiteSpace=wrap;html=1;fontColor=#000000;" parent="1" vertex="1">
          <mxGeometry x="340" y="440" width="80" height="20" as="geometry" />
        </mxCell>
        <mxCell id="xEXkKyEz45HYC3gErNy9-17" style="edgeStyle=orthogonalEdgeStyle;rounded=0;orthogonalLoop=1;jettySize=auto;html=1;fontColor=#000000;" parent="1" source="xEXkKyEz45HYC3gErNy9-18" target="xEXkKyEz45HYC3gErNy9-21" edge="1">
          <mxGeometry relative="1" as="geometry" />
        </mxCell>
        <mxCell id="xEXkKyEz45HYC3gErNy9-18" value="Sigmoid" style="rounded=0;whiteSpace=wrap;html=1;fontColor=#000000;" parent="1" vertex="1">
          <mxGeometry x="340" y="480" width="80" height="20" as="geometry" />
        </mxCell>
        <mxCell id="xEXkKyEz45HYC3gErNy9-19" value="&lt;p&gt;&lt;font&gt;B×&lt;span style=&quot;background-color: transparent;&quot;&gt;T&lt;/span&gt;&lt;span style=&quot;background-color: transparent;&quot;&gt;×C&#39;&lt;/span&gt;&lt;/font&gt;&lt;/p&gt;" style="text;html=1;align=center;verticalAlign=middle;whiteSpace=wrap;rounded=0;fontColor=#000000;fontSize=9;" parent="1" vertex="1">
          <mxGeometry x="380" y="360" width="50" height="20" as="geometry" />
        </mxCell>
        <mxCell id="xEXkKyEz45HYC3gErNy9-20" value="&lt;p&gt;&lt;font&gt;B&lt;span style=&quot;background-color: transparent;&quot;&gt;×&lt;/span&gt;&lt;span style=&quot;background-color: transparent;&quot;&gt;T&lt;/span&gt;&lt;span style=&quot;background-color: transparent;&quot;&gt;×C&quot;&lt;/span&gt;&lt;/font&gt;&lt;/p&gt;" style="text;html=1;align=center;verticalAlign=middle;whiteSpace=wrap;rounded=0;fontColor=#000000;fontSize=9;" parent="1" vertex="1">
          <mxGeometry x="380" y="460" width="50" height="20" as="geometry" />
        </mxCell>
        <mxCell id="xEXkKyEz45HYC3gErNy9-21" value="onset_pred" style="rounded=0;whiteSpace=wrap;html=1;fillColor=#E6E6E6;fontColor=#000000;" parent="1" vertex="1">
          <mxGeometry x="340" y="530" width="80" height="20" as="geometry" />
        </mxCell>
        <mxCell id="xEXkKyEz45HYC3gErNy9-22" value="&lt;p&gt;&lt;font&gt;B×&lt;span style=&quot;background-color: transparent;&quot;&gt;T&lt;/span&gt;&lt;span style=&quot;background-color: transparent;&quot;&gt;×C&quot;&lt;/span&gt;&lt;/font&gt;&lt;/p&gt;" style="text;html=1;align=center;verticalAlign=middle;whiteSpace=wrap;rounded=0;fontColor=#000000;fontSize=9;" parent="1" vertex="1">
          <mxGeometry x="380" y="550" width="50" height="20" as="geometry" />
        </mxCell>
        <mxCell id="xEXkKyEz45HYC3gErNy9-23" style="edgeStyle=orthogonalEdgeStyle;rounded=0;orthogonalLoop=1;jettySize=auto;html=1;entryX=0.5;entryY=0;entryDx=0;entryDy=0;" parent="1" source="xEXkKyEz45HYC3gErNy9-24" target="xEXkKyEz45HYC3gErNy9-16" edge="1">
          <mxGeometry relative="1" as="geometry" />
        </mxCell>
        <mxCell id="xEXkKyEz45HYC3gErNy9-24" value="BiLSTM" style="rounded=0;whiteSpace=wrap;html=1;fontColor=#000000;fillColor=#CCFFFF;" parent="1" vertex="1">
          <mxGeometry x="340" y="380" width="80" height="40" as="geometry" />
        </mxCell>
        <mxCell id="xEXkKyEz45HYC3gErNy9-25" value="&lt;p&gt;&lt;font&gt;B×&lt;span style=&quot;background-color: transparent;&quot;&gt;T&lt;/span&gt;&lt;span style=&quot;background-color: transparent;&quot;&gt;×2R&lt;/span&gt;&lt;/font&gt;&lt;/p&gt;" style="text;html=1;align=center;verticalAlign=middle;whiteSpace=wrap;rounded=0;fontColor=#000000;fontSize=9;" parent="1" vertex="1">
          <mxGeometry x="380" y="420" width="50" height="20" as="geometry" />
        </mxCell>
        <mxCell id="hg9_Pr8IPu3EkkVxl7I2-53" value="frame_pred" style="rounded=0;whiteSpace=wrap;html=1;fillColor=#E6E6E6;fontColor=#000000;" parent="1" vertex="1">
          <mxGeometry x="180" y="530" width="80" height="20" as="geometry" />
        </mxCell>
        <mxCell id="hg9_Pr8IPu3EkkVxl7I2-55" value="&lt;p&gt;&lt;font&gt;B×&lt;span style=&quot;background-color: transparent;&quot;&gt;T&lt;/span&gt;&lt;span style=&quot;background-color: transparent;&quot;&gt;×C&quot;&lt;/span&gt;&lt;/font&gt;&lt;/p&gt;" style="text;html=1;align=center;verticalAlign=middle;whiteSpace=wrap;rounded=0;fontColor=#000000;fontSize=9;" parent="1" vertex="1">
          <mxGeometry x="220" y="550" width="50" height="20" as="geometry" />
        </mxCell>
        <mxCell id="xEXkKyEz45HYC3gErNy9-26" value="" style="rounded=0;whiteSpace=wrap;html=1;align=center;fontColor=#000000;" parent="1" vertex="1">
          <mxGeometry x="170" y="310" width="100" height="200" as="geometry" />
        </mxCell>
        <mxCell id="xEXkKyEz45HYC3gErNy9-27" style="edgeStyle=orthogonalEdgeStyle;rounded=0;orthogonalLoop=1;jettySize=auto;html=1;entryX=0.5;entryY=0;entryDx=0;entryDy=0;" parent="1" source="xEXkKyEz45HYC3gErNy9-28" target="xEXkKyEz45HYC3gErNy9-38" edge="1">
          <mxGeometry relative="1" as="geometry" />
        </mxCell>
        <mxCell id="xEXkKyEz45HYC3gErNy9-28" value="ConvStack" style="rounded=0;whiteSpace=wrap;html=1;fillColor=#FFE599;fontColor=#000000;" parent="1" vertex="1">
          <mxGeometry x="180" y="320" width="80" height="40" as="geometry" />
        </mxCell>
        <mxCell id="xEXkKyEz45HYC3gErNy9-29" style="edgeStyle=orthogonalEdgeStyle;rounded=0;orthogonalLoop=1;jettySize=auto;html=1;entryX=0.5;entryY=0;entryDx=0;entryDy=0;fontColor=#000000;" parent="1" source="xEXkKyEz45HYC3gErNy9-30" target="xEXkKyEz45HYC3gErNy9-32" edge="1">
          <mxGeometry relative="1" as="geometry" />
        </mxCell>
        <mxCell id="xEXkKyEz45HYC3gErNy9-30" value="Linear" style="rounded=0;whiteSpace=wrap;html=1;fontColor=#000000;" parent="1" vertex="1">
          <mxGeometry x="180" y="440" width="80" height="20" as="geometry" />
        </mxCell>
        <mxCell id="xEXkKyEz45HYC3gErNy9-31" style="edgeStyle=orthogonalEdgeStyle;rounded=0;orthogonalLoop=1;jettySize=auto;html=1;fontColor=#000000;entryX=0.5;entryY=0;entryDx=0;entryDy=0;" parent="1" source="xEXkKyEz45HYC3gErNy9-32" target="hg9_Pr8IPu3EkkVxl7I2-53" edge="1">
          <mxGeometry relative="1" as="geometry">
            <mxPoint x="220" y="530" as="targetPoint" />
          </mxGeometry>
        </mxCell>
        <mxCell id="xEXkKyEz45HYC3gErNy9-32" value="Sigmoid" style="rounded=0;whiteSpace=wrap;html=1;fontColor=#000000;" parent="1" vertex="1">
          <mxGeometry x="180" y="480" width="80" height="20" as="geometry" />
        </mxCell>
        <mxCell id="xEXkKyEz45HYC3gErNy9-33" value="&lt;p&gt;&lt;font&gt;B×&lt;span style=&quot;background-color: transparent;&quot;&gt;T&lt;/span&gt;&lt;span style=&quot;background-color: transparent;&quot;&gt;×C&#39;&lt;/span&gt;&lt;/font&gt;&lt;/p&gt;" style="text;html=1;align=center;verticalAlign=middle;whiteSpace=wrap;rounded=0;fontColor=#000000;fontSize=9;" parent="1" vertex="1">
          <mxGeometry x="220" y="360" width="50" height="20" as="geometry" />
        </mxCell>
        <mxCell id="xEXkKyEz45HYC3gErNy9-34" value="&lt;p&gt;&lt;font&gt;B&lt;span style=&quot;background-color: transparent;&quot;&gt;×&lt;/span&gt;&lt;span style=&quot;background-color: transparent;&quot;&gt;T&lt;/span&gt;&lt;span style=&quot;background-color: transparent;&quot;&gt;×C&quot;&lt;/span&gt;&lt;/font&gt;&lt;/p&gt;" style="text;html=1;align=center;verticalAlign=middle;whiteSpace=wrap;rounded=0;fontColor=#000000;fontSize=9;" parent="1" vertex="1">
          <mxGeometry x="220" y="460" width="50" height="20" as="geometry" />
        </mxCell>
        <mxCell id="xEXkKyEz45HYC3gErNy9-37" style="edgeStyle=orthogonalEdgeStyle;rounded=0;orthogonalLoop=1;jettySize=auto;html=1;entryX=0.5;entryY=0;entryDx=0;entryDy=0;" parent="1" source="xEXkKyEz45HYC3gErNy9-38" target="xEXkKyEz45HYC3gErNy9-30" edge="1">
          <mxGeometry relative="1" as="geometry" />
        </mxCell>
        <mxCell id="xEXkKyEz45HYC3gErNy9-38" value="BiLSTM" style="rounded=0;whiteSpace=wrap;html=1;fontColor=#000000;fillColor=#CCFFFF;" parent="1" vertex="1">
          <mxGeometry x="180" y="380" width="80" height="40" as="geometry" />
        </mxCell>
        <mxCell id="xEXkKyEz45HYC3gErNy9-39" value="&lt;p&gt;&lt;font&gt;B×&lt;span style=&quot;background-color: transparent;&quot;&gt;T&lt;/span&gt;&lt;span style=&quot;background-color: transparent;&quot;&gt;×2R&lt;/span&gt;&lt;/font&gt;&lt;/p&gt;" style="text;html=1;align=center;verticalAlign=middle;whiteSpace=wrap;rounded=0;fontColor=#000000;fontSize=9;" parent="1" vertex="1">
          <mxGeometry x="220" y="420" width="50" height="20" as="geometry" />
        </mxCell>
        <mxCell id="hg9_Pr8IPu3EkkVxl7I2-54" style="edgeStyle=orthogonalEdgeStyle;rounded=0;orthogonalLoop=1;jettySize=auto;html=1;fontColor=#000000;entryX=0.5;entryY=0;entryDx=0;entryDy=0;" parent="1" source="hg9_Pr8IPu3EkkVxl7I2-38" target="xEXkKyEz45HYC3gErNy9-28" edge="1">
          <mxGeometry relative="1" as="geometry">
            <Array as="points" />
            <mxPoint x="220" y="320" as="targetPoint" />
          </mxGeometry>
        </mxCell>
        <mxCell id="hg9_Pr8IPu3EkkVxl7I2-37" style="edgeStyle=orthogonalEdgeStyle;rounded=0;orthogonalLoop=1;jettySize=auto;html=1;exitX=0.5;exitY=1;exitDx=0;exitDy=0;entryX=0.5;entryY=0;entryDx=0;entryDy=0;fontColor=#000000;" parent="1" source="hg9_Pr8IPu3EkkVxl7I2-38" target="xEXkKyEz45HYC3gErNy9-14" edge="1">
          <mxGeometry relative="1" as="geometry" />
        </mxCell>
        <mxCell id="xEXkKyEz45HYC3gErNy9-40" style="edgeStyle=orthogonalEdgeStyle;rounded=0;orthogonalLoop=1;jettySize=auto;html=1;entryX=0.5;entryY=0;entryDx=0;entryDy=0;fontColor=#000000;" parent="1" source="xEXkKyEz45HYC3gErNy9-41" target="xEXkKyEz45HYC3gErNy9-42" edge="1">
          <mxGeometry relative="1" as="geometry" />
        </mxCell>
        <mxCell id="xEXkKyEz45HYC3gErNy9-41" value="Linear" style="rounded=0;whiteSpace=wrap;html=1;fontColor=#000000;" parent="1" vertex="1">
          <mxGeometry x="790" y="380" width="80" height="20" as="geometry" />
        </mxCell>
        <mxCell id="xEXkKyEz45HYC3gErNy9-42" value="Sigmoid" style="rounded=0;whiteSpace=wrap;html=1;fontColor=#000000;" parent="1" vertex="1">
          <mxGeometry x="790" y="420" width="80" height="20" as="geometry" />
        </mxCell>
        <mxCell id="xEXkKyEz45HYC3gErNy9-43" value="&lt;p&gt;&lt;font&gt;B×&lt;span style=&quot;background-color: transparent;&quot;&gt;T&lt;/span&gt;&lt;span style=&quot;background-color: transparent;&quot;&gt;×C&quot;&lt;/span&gt;&lt;/font&gt;&lt;/p&gt;" style="text;html=1;align=center;verticalAlign=middle;whiteSpace=wrap;rounded=0;fontColor=#000000;fontSize=9;" parent="1" vertex="1">
          <mxGeometry x="830" y="400" width="50" height="20" as="geometry" />
        </mxCell>
        <mxCell id="xEXkKyEz45HYC3gErNy9-44" value="ConvStack" style="rounded=0;whiteSpace=wrap;html=1;fillColor=#FFE599;fontColor=#000000;" parent="1" vertex="1">
          <mxGeometry x="630" y="500" width="80" height="40" as="geometry" />
        </mxCell>
      </root>
    </mxGraphModel>
  </diagram>
</mxfile>
